<?xml version="1.0" encoding="UTF-8"?>
<svg id="Layer_2" xmlns="http://www.w3.org/2000/svg" version="1.1" viewBox="0 0 194.2 87.9">
  <!-- Generator: Adobe Illustrator 29.3.1, SVG Export Plug-In . SVG Version: 2.1.0 Build 151)  -->
  <defs>
    <style>
      .st0 {
        fill: #02542d;
      }
    </style>
  </defs>
  <g id="Layer_1-2">
    <g>
      <path class="st0" d="M183.9,4.7c-1.2-2.2-3.9-3-6.1-1.8-27.5,15-47.5,40.2-55.8,70.1-4.3-13.4-11.4-26-20.8-36.6-.3-.3-.6-.6-.9-.8l-.3-.2c-.1,0-.3-.2-.4-.2l-.4-.2h-.2c-.1,0-.3,0-.4,0h0c-.4,0-.9,0-1.3,0h-.3c-.1,0-.3.1-.5.2l-.9.2-.2.3c-.2.1-.4.2-.5.4,0,0-.1,0-.2.2,0,0-.2.2-.3.3-9.4,10.7-16.6,23.2-20.8,36.6C65.2,43.1,45.2,17.9,17.8,2.9c-2.2-1.2-4.9-.4-6.1,1.8-1.2,2.2-.4,4.9,1.8,6.1,29.2,15.9,49.2,44.5,54.1,77.1h11.6c2.6-15.2,9-29.5,18.6-41.6,9.6,12.1,16,26.4,18.6,41.6h11.6c2.3-15.5,8.1-30.1,16.6-42.8,9.4-14.1,22.2-26,37.6-34.3,2.2-1.2,3-3.9,1.8-6.1h0Z"/>
      <path class="st0" d="M97.5,63.9c-3.9,0-7,3.1-7,7v17h14v-17c0-3.9-3.1-7-7-7ZM94,79.9c-.8,0-1.5-.7-1.5-1.5s.7-1.5,1.5-1.5,1.5.7,1.5,1.5-.7,1.5-1.5,1.5Z"/>
      <g>
        <path class="st0" d="M46.2,33.9c-.9,0-1.7-.6-2-1.6-1.1-4.8,0-14.8,11.7-18.4,1-.3,2.2.3,2.5,1.3.3,1.1-.3,2.2-1.3,2.5-11.1,3.4-9,13.2-9,13.7.2,1.1-.4,2.1-1.5,2.4-.2,0-.3,0-.4,0h0Z"/>
        <path class="st0" d="M18,29c-.4,0-.8-.1-1.1-.3-.9-.6-1.2-1.8-.6-2.8,2.6-4.1,10.5-10.4,21.3-4.6,1,.5,1.3,1.7.8,2.7-.5,1-1.7,1.3-2.7.8-10.2-5.4-15.8,2.9-16,3.3-.4.6-1,.9-1.7.9h0Z"/>
        <path class="st0" d="M61.2,57.3c-.7,0-1.4-.4-1.7-1-5.7-10.1-14.9-6-15.3-5.8-1,.5-2.2,0-2.7-1s0-2.2,1-2.7c4.4-2.1,14.4-3.2,20.4,7.5.5,1,.2,2.2-.8,2.7-.3.2-.7.3-1,.3h0Z"/>
        <path class="st0" d="M66.8,70.2c-.8,0-1.5-.4-1.8-1.2-5-11.2,1.8-18.5,6.1-20.9,1-.5,2.2-.2,2.7.8.5,1,.2,2.2-.8,2.7-.4.2-9.1,5.2-4.4,15.8.4,1,0,2.2-1,2.6-.3.1-.5.2-.8.2h0Z"/>
        <path class="st0" d="M7.9,15.3c-3.4.6-6.2,2.6-7.9,5.3,2.4,2.1,5.7,3.1,9.2,2.6s6.2-2.6,7.9-5.3c-2.4-2.1-5.7-3.1-9.2-2.6Z"/>
        <path class="st0" d="M61.9,21.3c-3.4.5-6.2,2.6-7.9,5.3,2.4,2.1,5.7,3.1,9.2,2.6s6.2-2.6,7.9-5.3c-2.4-2.1-5.7-3.1-9.2-2.6Z"/>
        <path class="st0" d="M22.7,34c-1.1,3.3-.5,6.7,1.2,9.4,3-1.2,5.4-3.7,6.4-7s.5-6.7-1.2-9.4c-3,1.2-5.4,3.7-6.4,7Z"/>
        <path class="st0" d="M41.7,7c-1.1,3.3-.5,6.7,1.2,9.4,3-1.2,5.4-3.7,6.5-7S49.9,2.7,48.2,0c-3,1.2-5.4,3.7-6.5,7Z"/>
        <path class="st0" d="M64.9,38.1c-1.4,3.2-1.3,6.6,0,9.5,3.1-.9,5.8-3,7.2-6.2s1.3-6.6,0-9.5c-3.1.9-5.8,3-7.2,6.2Z"/>
        <path class="st0" d="M44.9,56.8c-2.6,2.3-3.9,5.5-3.9,8.7,3.2.5,6.5-.4,9.1-2.7s3.9-5.5,3.9-8.7c-3.2-.5-6.5.4-9.1,2.7Z"/>
      </g>
      <g>
        <path class="st0" d="M148,33.9c-.1,0-.3,0-.4,0-1.1-.2-1.8-1.3-1.5-2.4,0-.4,2.1-10.3-9-13.7-1.1-.3-1.6-1.4-1.3-2.5.3-1.1,1.4-1.6,2.5-1.3,11.7,3.6,12.8,13.6,11.7,18.4-.2.9-1,1.6-1.9,1.6h0Z"/>
        <path class="st0" d="M176.2,29c-.7,0-1.3-.3-1.7-.9-.2-.4-5.8-8.7-16-3.3-1,.5-2.2.1-2.7-.8s-.1-2.2.8-2.7c10.8-5.8,18.6.5,21.2,4.6.6.9.3,2.2-.6,2.8-.3.2-.7.3-1.1.3h0Z"/>
        <path class="st0" d="M133,57.3c-.3,0-.7,0-1-.3-1-.5-1.3-1.8-.8-2.7,6-10.6,16-9.5,20.4-7.5,1,.5,1.4,1.7,1,2.7-.5,1-1.6,1.4-2.6,1-.4-.2-9.6-4.2-15.3,5.8-.4.7-1.1,1-1.7,1h0Z"/>
        <path class="st0" d="M127.4,70.2c-.3,0-.6,0-.8-.2-1-.4-1.5-1.6-1-2.6,4.8-10.6-4-15.5-4.4-15.7-1-.5-1.3-1.8-.8-2.7.5-1,1.8-1.3,2.7-.8,4.3,2.3,11.1,9.7,6.1,20.9-.3.7-1.1,1.2-1.8,1.2h0Z"/>
        <path class="st0" d="M186.3,15.3c3.4.6,6.2,2.6,7.9,5.3-2.4,2.1-5.7,3.1-9.2,2.6-3.4-.5-6.2-2.6-7.9-5.3,2.4-2.1,5.7-3.1,9.2-2.6Z"/>
        <path class="st0" d="M132.3,21.3c3.4.5,6.2,2.6,7.9,5.3-2.4,2.1-5.7,3.1-9.2,2.6s-6.2-2.6-7.9-5.3c2.4-2.1,5.7-3.1,9.2-2.6Z"/>
        <path class="st0" d="M171.5,34c1.1,3.3.5,6.7-1.2,9.4-3-1.2-5.4-3.7-6.4-7s-.5-6.7,1.2-9.4c3,1.2,5.4,3.7,6.4,7Z"/>
        <path class="st0" d="M152.5,7c1.1,3.3.5,6.7-1.2,9.4-3-1.2-5.4-3.7-6.4-7S144.3,2.7,146,0c3,1.2,5.4,3.7,6.4,7Z"/>
        <path class="st0" d="M129.3,38.1c1.4,3.2,1.3,6.6,0,9.5-3.1-.9-5.8-3-7.2-6.2s-1.3-6.6,0-9.5c3.1.9,5.8,3,7.2,6.2Z"/>
        <path class="st0" d="M149.3,56.8c2.6,2.3,3.9,5.5,3.9,8.7-3.2.5-6.5-.4-9.1-2.7s-3.9-5.5-3.9-8.7c3.2-.5,6.5.4,9.1,2.7Z"/>
      </g>
    </g>
  </g>
</svg>