<?xml version="1.0" encoding="UTF-8"?>
<svg id="Layer_2" xmlns="http://www.w3.org/2000/svg" version="1.1" viewBox="0 0 184.6 36.5">
  <!-- Generator: Adobe Illustrator 29.3.1, SVG Export Plug-In . SVG Version: 2.1.0 Build 151)  -->
  <defs>
    <style>
      .st0 {
        fill: #02542d;
      }
    </style>
  </defs>
  <g id="Layer_1-2">
    <g>
      <g>
        <path class="st0" d="M131.5,35.7c-.4-.4-.6-.8-.6-1.4v-8.2c0-.3,0-.6.2-.9s.4-.5.7-.7.6-.2.9-.2.6,0,.9.3.5.4.7.7.2.6.2.9v2.3l3.2-3.5c.1-.2.3-.3.6-.4.2-.1.5-.2.8-.2s.7,0,1,.3.5.5.7.8c.1.2.2.5.2.8,0,.5-.2.9-.5,1.2l-2.5,2.4,2.9,3.2c.3.4.5.8.5,1.2s0,.5-.2.8-.3.5-.5.7c-.2.2-.4.3-.7.3-.2,0-.4,0-.5,0-.3,0-.5,0-.8-.2s-.4-.2-.6-.5l-3.6-4.4v3.1c0,.5-.2,1-.5,1.3s-.8.5-1.3.5-.4,0-.7-.1-.4-.2-.6-.4h0Z"/>
        <path class="st0" d="M143.6,35.7c-.4-.4-.6-.8-.6-1.3v-8.1c0-.5.2-1,.5-1.3s.8-.5,1.3-.5.6,0,.9.2.5.4.7.7.2.6.2,1v8.2c0,.2,0,.5-.1.7s-.2.4-.4.6c-.4.3-.8.5-1.3.5s-1-.2-1.3-.5h0Z"/>
        <path class="st0" d="M149.8,33.6c-.2-.3-.4-.7-.6-1.1s-.3-.8-.4-1.1-.1-.8-.1-1.1,0-.8.1-1.1.2-.8.4-1.1.4-.7.6-1.1c.4-.5.8-1,1.4-1.4s1.1-.7,1.8-.9,1.3-.3,1.9-.3,1,0,1.5.2.9.3,1.4.5.9.5,1.2.8.7.7,1,1.1c.7,1,1.1,2.1,1.1,3.3s0,1.2-.3,1.7-.4,1.1-.8,1.6c-.3.4-.6.8-1,1.1s-.8.6-1.2.8-.9.4-1.4.5-1,.2-1.5.2-1.3,0-1.9-.3-1.2-.5-1.8-.9-1-.9-1.4-1.4h0ZM152.4,30.3c0,.5.1,1,.3,1.4.2.4.5.7.9,1s.8.3,1.2.3.3,0,.5,0c.3,0,.6-.2.8-.3s.4-.3.6-.6.3-.5.4-.8.1-.6.1-1,0-.3,0-.5c0-.5-.2-.8-.5-1.2s-.5-.6-.9-.8-.7-.3-1.1-.3-.9.1-1.2.4-.7.6-.9,1-.3.9-.3,1.4h0Z"/>
        <path class="st0" d="M163.8,35.5c-.4-.2-.7-.5-.8-.7s-.2-.6-.2-.9c0-.3.1-.7.3-.9.3-.5.7-.7,1.1-.7s.4,0,.6,0l.7.2.6.2h.5c0,.1.2.2.2.2.1,0,.2,0,.3,0,.2,0,.4,0,.6,0s.3,0,.4,0c.2,0,.3-.1.4-.2.1,0,.1-.2.1-.3s0-.2-.2-.3c0,0,0,0-.1,0h-.3c0-.1-.2-.2-.2-.2l-.9-.2h-.2s-1.1-.3-1.1-.3c-.6-.2-1.1-.4-1.5-.6-.4-.3-.8-.6-1-1.1s-.4-.9-.4-1.5,0-.8.2-1.3.4-.8.7-1.1c.4-.4.8-.7,1.3-1s1.2-.4,1.8-.5c.3,0,.6,0,.8,0,.6,0,1.2,0,1.7.2.6.2,1.1.4,1.4.6s.5.5.6.9c0,.2,0,.4,0,.6,0,.3,0,.6-.3.9-.2.2-.3.4-.5.5s-.4.2-.7.2-.6,0-1-.2h-.1s-.5-.2-.5-.2h-.2s-.4-.2-.4-.2h-.2s-.2,0-.2,0c0,0,0,0,0,0s0,0-.1,0c-.3,0-.5,0-.6.1,0,0-.1.2-.1.3s0,.1,0,.2c0,0,.1,0,.3.1h.3c0,0,.1.1.1.1h.3c0,0,.5.2.5.2l1.1.3c.6.2,1,.3,1.4.5.3.1.5.3.8.5s.4.4.6.7.3.5.3.8.1.5.1.9c0,.8-.3,1.6-.9,2.3-.9,1.1-2.3,1.7-4.1,1.7s-.4,0-.7,0c-1.3,0-2.2-.3-2.8-.7h0Z"/>
        <path class="st0" d="M174.6,35.7c-.4-.4-.6-.8-.6-1.4v-8.2c0-.3,0-.6.2-.9s.4-.5.7-.7.6-.2.9-.2.6,0,.9.3.5.4.7.7.2.6.2.9v2.3l3.2-3.5c.1-.2.3-.3.6-.4.2-.1.5-.2.8-.2s.7,0,1,.3.5.5.7.8c.1.2.2.5.2.8,0,.5-.2.9-.5,1.2l-2.5,2.4,2.9,3.2c.3.4.5.8.5,1.2s0,.5-.2.8-.3.5-.5.7c-.2.2-.4.3-.7.3-.2,0-.4,0-.5,0-.3,0-.5,0-.8-.2s-.4-.2-.6-.5l-3.6-4.4v3.1c0,.5-.2,1-.5,1.3s-.8.5-1.3.5-.4,0-.7-.1-.4-.2-.6-.4h0Z"/>
      </g>
      <g>
        <path class="st0" d="M8.9,25.8c-.2.3-.5.4-.8.4-.4,0-.7,0-1.1-.1-.3,0-.7-.2-1-.2-.7-.2-1.4-.3-2.1-.4-.7-.1-1.4-.3-2-.5-.2,0-.5-.2-.7-.3-.2-.1-.4-.3-.6-.5-.2-.2-.4-.5-.5-.7,0-.1,0-.3,0-.4C0,22.9,0,22.7,0,22.6c0-.4,0-.7.2-1,0-.3.2-.6.4-.9.1-.2.3-.5.5-.6.2-.2.4-.3.7-.4.2,0,.5-.1.8,0s.5,0,.8.1c.2,0,.5.2.9.4.4.2.9.4,1.4.7.5.2.9.5,1.3.7.4.2.7.4.9.5.3.2.6.4.8.6.3.2.5.5.6.8,0,.2.1.4.2.6,0,.2,0,.5,0,.7,0,.2-.1.4-.2.6,0,.2-.2.4-.3.5h0ZM3.7,34c-.3.1-.5.2-.8.3-.3,0-.5.2-.8.2-.4,0-.7,0-1-.3-.3-.2-.5-.5-.7-.9-.1-.3-.2-.7-.2-1,0-.4,0-.7,0-1,0-.4.2-.7.4-1s.4-.6.6-.8c.3-.3.6-.5,1-.6.3-.1.7-.3,1.1-.3,0,0,0,0,.2,0,0,0,.2,0,.3,0,.1,0,.2,0,.3,0,0,0,.2,0,.2,0,.5-.2,1-.3,1.5-.4.5,0,1-.1,1.5-.2.2,0,.5,0,.8,0,.2,0,.4.1.6.3.2.1.3.3.4.5.1.2.2.5.2.7s0,.5,0,.7c0,.3-.1.5-.2.7-.1.2-.3.4-.5.5-.2.1-.4.3-.6.4-.3.2-.6.3-.9.5s-.6.3-.9.5c-.4.2-.8.5-1.1.7-.4.2-.8.5-1.2.7h0Z"/>
        <path class="st0" d="M14.7,33.3c-1-4.2-2.1-8.5-3.1-12.7,0-.2,0-.4,0-.6,0-.5.1-.9.3-1.4s.5-.9.9-1.2c.3-.3.8-.5,1.2-.6,1.6,0,2.6.8,3.1,2.5.7,2.6,1.4,5.2,2,7.8.7-2.7,1.4-5.5,2-8.2.3-1.2.8-2,1.6-2.3.3-.1.6-.2.9-.2.5,0,1,.1,1.5.5.4.4.7,1,.9,1.7.7,2.6,1.4,5.2,2,7.8.7-2.6,1.4-5.3,2-7.9.4-1.7,1.5-2.7,3.1-2.8.5,0,.9.2,1.2.4.4.3.7.6.9,1,.2.4.3.9.3,1.3s0,.4,0,.5c-1,4.2-2.1,8.5-3.1,12.8-.3,1.1-.7,2-1.4,2.7-.6.6-1.4,1-2.3,1.1-.8,0-1.5-.1-2.1-.6-.6-.5-1.1-1.1-1.3-2-.6-2-1.2-4-1.8-6-.6,2.1-1.2,4.2-1.8,6.3-.2.6-.4,1.1-.8,1.6s-.8.9-1.2,1.1c-.5.3-1,.4-1.5.5-.6,0-1.1,0-1.6-.3-.5-.2-.9-.6-1.2-1.1-.3-.5-.6-1.1-.8-1.9h0Z"/>
        <path class="st0" d="M38.3,30.3c-.3-.5-.7-1-.9-1.6-.2-.6-.4-1.2-.5-1.8-.1-.6-.2-1.2-.2-1.8s0-1.2.2-1.9c.1-.6.3-1.3.5-1.9s.5-1.2.9-1.8c.6-.9,1.2-1.8,2-2.5s1.7-1.3,2.6-1.7c1-.4,1.9-.7,2.9-.8.8,0,1.5,0,2.2,0,.7.1,1.4.3,2.1.6.7.3,1.3.7,1.8,1.1.5.5,1,1,1.5,1.6,1.1,1.5,1.6,3.2,1.6,5.1,0,.9-.1,1.9-.4,2.8-.3.9-.7,1.8-1.2,2.7-.4.7-.9,1.4-1.5,2-.6.6-1.2,1.1-1.8,1.6s-1.3.8-2.1,1.1-1.5.5-2.2.6c-1,.1-2,0-2.9-.1s-1.8-.6-2.6-1.2c-.8-.5-1.5-1.2-2-2.1h0ZM42.2,24.5c0,.8.2,1.6.5,2.2s.8,1.1,1.3,1.4c.6.3,1.2.4,1.8.3.2,0,.5,0,.7-.2.5-.2.8-.4,1.2-.7.4-.3.7-.6,1-1.1s.5-.9.6-1.4c.2-.5.2-1,.2-1.5s0-.5,0-.8c-.1-.7-.3-1.3-.7-1.8s-.8-.8-1.3-1.1c-.5-.2-1.1-.3-1.7-.3-.7,0-1.3.3-1.9.8s-1,1-1.3,1.7-.5,1.5-.5,2.3h0Z"/>
        <path class="st0" d="M58.8,27.6c-.3-.5-.7-1-.9-1.5-.2-.5-.4-1.1-.5-1.7-.1-.6-.2-1.2-.2-1.8s0-1.2.2-1.8c.1-.6.3-1.2.5-1.9.2-.6.5-1.2.9-1.8.6-.9,1.2-1.8,2-2.5.8-.7,1.7-1.3,2.6-1.8,1-.4,1.9-.8,2.9-.9.8-.1,1.5-.1,2.2,0,.7,0,1.4.3,2.1.5.7.3,1.3.6,1.8,1s1,.9,1.4,1.5c1.1,1.4,1.6,3.1,1.6,4.9,0,.9-.1,1.8-.4,2.7-.3.9-.7,1.8-1.2,2.6-.4.7-.9,1.3-1.5,2-.6.6-1.2,1.1-1.8,1.6-.6.4-1.3.8-2.1,1.1s-1.5.5-2.2.7c-1,.2-2,.2-2.9,0-1-.2-1.8-.5-2.6-1-.8-.5-1.5-1.1-2-1.9h0ZM62.7,21.8c0,.8.2,1.5.5,2.1.3.6.8,1.1,1.3,1.3.6.3,1.2.4,1.8.3.2,0,.5-.1.7-.2.4-.2.8-.4,1.2-.7.4-.3.7-.7,1-1.1s.5-.9.6-1.3.2-1,.2-1.5,0-.5,0-.8c-.1-.7-.3-1.3-.7-1.7-.3-.5-.8-.8-1.3-1-.5-.2-1.1-.3-1.7-.2-.7.1-1.3.4-1.9.8-.6.4-1,1-1.3,1.7-.3.7-.5,1.5-.5,2.3h0Z"/>
        <path class="st0" d="M78,25.5v-12.1c0-.5.1-1,.4-1.5s.6-.9,1-1.2c.4-.3.9-.5,1.4-.6,1.3-.2,2.5-.4,3.8-.6,1.3-.2,2.6-.2,3.6,0s2,.4,2.8.9c.8.4,1.5,1,2,1.8.5.7.9,1.6,1.2,2.6.2.7.2,1.4.2,2.1,0,1.6-.4,3.2-1.2,4.6-.8,1.5-1.9,2.7-3.2,3.6-1.4,1-2.9,1.6-4.7,1.9-1.6.3-3.1.5-4.7.8-.8.1-1.4,0-1.9-.5-.5-.5-.8-1.1-.8-1.9h0ZM83.5,22.6c.4,0,.9-.1,1.3-.2.8-.1,1.5-.4,2.2-.9s1.1-1,1.5-1.6c.3-.6.5-1.3.5-2s0-.6-.1-1c-.2-.9-.7-1.5-1.4-2s-1.7-.6-2.9-.4c-.4,0-.7.1-1.1.2v7.9h0Z"/>
        <path class="st0" d="M99.7,24.9c-.8.1-1.4,0-1.9-.5-.5-.5-.8-1.1-.8-1.8v-11.8c0-.6.1-1.1.3-1.6.2-.5.6-.9,1-1.1.4-.3.9-.5,1.5-.6,1.8-.3,3.5-.5,5.3-.8,1.1-.2,2.1-.1,2.9,0,.8.2,1.5.6,2.1,1.1s.9,1.2,1.1,2.1c.1.5.2,1,.2,1.4,0,1.6-.5,2.9-1.6,4h0c-.2.3-.4.5-.6.6-.1.1-.2.2-.3.3.7.8,1.4,1.5,2,2.3.4.4.6,1,.6,1.6s0,.8-.3,1.2c-.2.4-.5.8-.9,1.1-.5.4-1,.7-1.6.8-1,.2-1.8-.2-2.5-1.1-1.2-1.5-2.4-3.1-3.6-4.6v4c0,.5-.1,1-.4,1.4s-.6.8-1,1.1c-.4.3-.9.5-1.4.6h0ZM102.4,13.9c.8-.1,1.5-.2,2.3-.4.3,0,.5-.2.7-.4.2-.2.3-.5.3-.9s0-.5-.3-.6-.4-.2-.6-.2c-.8.1-1.6.2-2.4.4v2.1h0Z"/>
        <path class="st0" d="M114.4,21.6c-.6-.4-.8-1-.8-1.8V8c0-.8.3-1.4.8-2s1.2-.9,2-1c.5,0,.9,0,1.4.2.4.2.8.5,1,.8s.4.8.4,1.3v11.7c0,.4,0,.7-.2,1.1s-.3.7-.6,1c-.6.6-1.2,1-1.9,1.1-.8.1-1.4,0-2-.5h0Z"/>
        <path class="st0" d="M121.7,18.3V7c0-.5.1-.9.4-1.4.2-.4.6-.8,1-1.1s.9-.5,1.4-.5c1.3-.2,2.5-.3,3.8-.5,1.3-.2,2.6-.2,3.6,0s2,.4,2.9.9c.8.4,1.5,1,2,1.7.5.7.9,1.5,1.2,2.5.2.6.2,1.3.2,2,0,1.5-.4,2.9-1.2,4.3s-1.9,2.4-3.2,3.3c-1.4.9-2.9,1.5-4.7,1.7-1.6.2-3.1.5-4.7.7-.8.1-1.4,0-1.9-.5-.5-.5-.8-1-.8-1.8h0ZM127.2,15.6c.4,0,.9-.1,1.3-.2.8-.1,1.6-.4,2.2-.8.6-.4,1.1-.9,1.5-1.5s.5-1.2.5-1.9,0-.6-.1-.9c-.2-.8-.6-1.4-1.4-1.9-.8-.4-1.7-.6-2.9-.4-.4,0-.7.1-1.1.1v7.4h0Z"/>
        <path class="st0" d="M151.1,12.7c.8-.2,1.4-.6,1.8-1-.5,0-1,0-1.4.1-.7,0-1.3,0-1.7-.5-.5-.4-.7-.9-.7-1.5,0-.4.1-.8.3-1.1.2-.4.5-.7.9-.9s.8-.4,1.2-.4c1.6-.1,3.1-.3,4.6-.4,1.7-.1,2.6.7,2.6,2.3s0,1-.2,1.5c-.1.7-.4,1.4-.8,2.1-.5.8-1.1,1.5-1.8,2.2-.7.6-1.6,1.1-2.5,1.5-1,.4-2,.6-3.2.8-.7,0-1.4.1-2.2,0-1.1,0-2.1-.2-3-.5s-1.7-.8-2.3-1.4c-.7-.6-1.2-1.3-1.6-2.1-.5-1-.7-2-.7-3s.4-2.8,1.1-4.1,1.8-2.5,3.2-3.4c1.5-1,3.2-1.6,5.2-1.8.2,0,.6,0,1.1,0,.8,0,1.6,0,2.4.2.8.2,1.5.4,2.2.7,1.4.7,2.1,1.5,2.1,2.5s-.3,1.1-.8,1.6c-.4.3-.9.6-1.4.6-.4,0-.9,0-1.3-.2h0c-.3-.1-.7-.3-1-.4-.2,0-.4-.2-.5-.2-1-.3-1.9-.4-2.7-.4-.7,0-1.3.2-1.8.5-.5.3-1,.7-1.4,1.2-.4.5-.6,1.1-.7,1.7,0,.2,0,.4,0,.6s0,.5,0,.7c.1.6.4,1.1.8,1.6.4.4.8.7,1.4.9.6.2,1.2.2,1.9.2.4,0,.8-.1,1.2-.3h0Z"/>
        <path class="st0" d="M161.2,14.4c-.1-.3-.2-.6-.2-.9V3c0-.5.1-.9.4-1.3.2-.4.6-.7,1-1,.4-.2.9-.4,1.4-.4C166,.2,168.2,0,170.4,0c.4,0,.8,0,1.1.2.4.2.6.4.9.7.2.3.3.7.3,1.1s-.1.8-.3,1.1c-.2.3-.5.6-.9.8-.4.2-.8.3-1.2.3-1.3,0-2.5.1-3.8.2v1.3c1,0,2.1-.1,3.1-.2.3,0,.7,0,1,.1.3.1.6.3.8.5.2.2.4.4.5.6.1.2.2.5.2.8,0,.6-.2,1.1-.8,1.5-.5.4-1.1.7-1.8.7-1.1,0-2.1.1-3.1.2v1.3c1.2,0,2.4-.1,3.6-.2.7,0,1.3.1,1.9.6.2.2.4.4.6.6.1.3.2.5.2.8,0,.6-.2,1.1-.7,1.5-.5.4-1.1.7-1.8.7-2.1.1-4.3.3-6.5.4-.5,0-1,0-1.5-.3s-.8-.6-1.1-1.1h0Z"/>
        <path class="st0" d="M177.7,6.7c-.2,0-.4,0-.6.1-.2,0-.4,0-.6,0s-.4,0-.5-.1c-.2,0-.3-.2-.4-.3-.2-.2-.3-.5-.4-.8,0-.3,0-.6.2-.9.2-.3.5-.7.9-.9s.8-.4,1.2-.6c0,0,.1,0,.3-.1s.2-.1.3-.1c.1,0,.4-.2.7-.3.3-.1.7-.3,1.1-.4s.8-.3,1.1-.4.6-.2.7-.2c.2,0,.5,0,.8,0,.3,0,.5,0,.7.2.2,0,.4.2.6.4.2.2.3.3.5.5.1.2.2.4.3.6,0,.2.1.4.1.6,0,.2,0,.3,0,.5,0,.2,0,.3-.1.4,0,.1-.2.3-.3.4s-.3.2-.4.3c-.3.2-.6.3-.9.3s-.7.2-1,.2c-.7.1-1.4.2-2.1.3-.7.1-1.4.2-2.1.4h0ZM184.1,10c.2.3.3.6.3,1,0,.4,0,.7-.2,1s-.4.5-.6.7-.6.3-1,.3c-.2,0-.4,0-.5,0s-.4,0-.5-.1c-.4-.1-.8-.2-1.2-.4s-.8-.3-1.2-.5c0,0-.2,0-.5-.2-.2,0-.5-.2-.8-.3-.3-.1-.5-.2-.8-.3s-.4-.1-.5-.2c-.2,0-.4-.2-.6-.3-.2-.1-.4-.2-.5-.4,0-.1-.1-.3-.1-.5,0-.2,0-.4,0-.6,0-.2.1-.4.2-.5s.3-.3.4-.4c.2-.1.3-.2.6-.2.2,0,.4,0,.6,0,.4,0,.7,0,1,0,.3,0,.7,0,1,.1,0,0,0,0,.2,0,0,0,.2,0,.3,0s.2,0,.3,0,.1,0,.2,0c.4,0,.9.1,1.3.2.4,0,.9.2,1.3.4.3.1.5.3.8.5.2.2.4.4.5.7h0Z"/>
      </g>
    </g>
  </g>
</svg>